<svg width="40" height="30" fill="none" xmlns="http://www.w3.org/2000/svg"><path d="M1.469 3.186H7.57l6.195 19.73a1.585 1.585 0 0 0 1.509 1.11H34.62a1.589 1.589 0 0 0 0-3.178H16.443l-1.237-3.95h19.856a3.093 3.093 0 0 0 2.949-2.39l1.83-8.338a2.483 2.483 0 0 0-2.466-3.068H10.892l-.627-1.992A1.584 1.584 0 0 0 8.748 0h-7.27a1.593 1.593 0 0 0 0 3.178l-.01.008zm33.5 10.543H14.222l-.694-2.119h21.881l-.44 2.119zm-23.094-7.44H36.58l-.466 2.135h-23.61l-.704-2.136h.076zM19.646 27.746a2.254 2.254 0 1 1-4.508 0 2.254 2.254 0 0 1 4.508 0zM33.604 27.746a2.254 2.254 0 1 1-4.508 0 2.254 2.254 0 0 1 4.508 0z" fill="#008DD2"/></svg>