<svg width="14" height="20" viewBox="0 0 14 20" fill="none" xmlns="http://www.w3.org/2000/svg">
<path d="M13.4338 4.97781C13.3627 4.71099 13.2184 4.4267 13.1116 4.17779C11.8336 1.10222 9.0412 0 6.78649 0C3.76816 0 0.443827 2.02672 0 6.20428V7.05777C0 7.09339 0.0122589 7.41335 0.029672 7.57341C0.278471 9.56432 1.84728 11.6802 3.01893 13.6712C4.27946 15.8042 5.58744 17.9026 6.88331 20C7.68237 18.6312 8.47854 17.2445 9.25939 15.9112C9.47221 15.5199 9.71924 15.1288 9.93229 14.7553C10.0743 14.5067 10.3456 14.258 10.4695 14.0266C11.73 11.7156 13.7589 9.38679 13.7589 7.09335V6.15117C13.7589 5.90254 13.4511 5.03142 13.4338 4.97781ZM6.84175 9.26236C5.95451 9.26236 4.98337 8.8181 4.50402 7.59121C4.4326 7.39592 4.43836 7.00453 4.43836 6.96868V6.41757C4.43836 4.85352 5.76455 4.14226 6.91828 4.14226C8.33863 4.14226 9.43715 5.28019 9.43715 6.70252C9.43715 8.12479 8.26211 9.26236 6.84175 9.26236Z" fill="#008DD2"/>
</svg>
