<svg width="145" height="82" viewBox="0 0 145 82" fill="none" xmlns="http://www.w3.org/2000/svg">
<path fill-rule="evenodd" clip-rule="evenodd" d="M61.2408 10.4146C19.7416 21.3282 -13.5893 44.6531 31.2225 82C34.7621 75.3747 36.6453 73.3326 46.9691 71.7898C5.15224 44.8573 25.1644 24.5274 61.2408 10.4146Z" fill="white"/>
<path fill-rule="evenodd" clip-rule="evenodd" d="M72.7898 5.76318C44.0875 11.1406 0.727805 20.6475 0.0017395 57.5407C1.40849 57.5407 2.79255 57.5407 4.1993 57.5407C4.97075 21.6005 45.0405 13.16 72.7898 5.76318Z" fill="white"/>
<path d="M86.5396 11.3901C89.685 11.3901 92.2347 8.84038 92.2347 5.69507C92.2347 2.54977 89.685 0 86.5396 0C83.3943 0 80.8446 2.54977 80.8446 5.69507C80.8446 8.84038 83.3943 11.3901 86.5396 11.3901Z" fill="white"/>
<path d="M52.7776 55.5667H47.922V32.7637H46.4926V55.5667H41.637V27.0686H52.7776V55.5667ZM58.7676 41.2723H54.3885V39.7067C54.3885 37.8915 54.5247 36.5075 54.797 35.5091C55.0692 34.5335 55.6365 33.6713 56.4533 32.9225C57.2701 32.1738 58.3365 31.788 59.6525 31.788C61.2408 31.788 62.4206 32.2191 63.2148 33.0586C64.0316 33.9208 64.5081 34.9646 64.6669 36.1898C64.8257 37.4377 64.9165 39.979 64.9165 43.8362V55.5667H60.3786V53.4792C60.0836 54.3187 59.7206 54.9541 59.2668 55.3625C58.813 55.7936 58.2911 55.9978 57.6558 55.9978C56.839 55.9978 56.0903 55.6574 55.4096 54.9541C54.7289 54.2507 54.3885 52.7305 54.3885 50.3708V48.4422C54.3885 46.6951 54.5701 45.5152 54.9331 44.8799C55.2961 44.2446 56.2037 43.4958 57.6332 42.6563C59.1534 41.7487 59.9929 41.1361 60.0836 40.8185C60.1971 40.5008 60.2424 39.8428 60.2424 38.8672C60.2424 37.6419 60.1971 36.8478 60.0836 36.4848C59.9475 36.1217 59.7433 35.9402 59.471 35.9402C59.1534 35.9402 58.9491 36.099 58.8811 36.394C58.813 36.7117 58.7676 37.5285 58.7676 38.8218V41.2723ZM60.2424 44.4715C59.4937 45.311 59.0626 45.9917 58.9491 46.5589C58.8357 47.1262 58.7676 47.9203 58.7676 48.9867C58.7676 50.2119 58.813 50.9834 58.9265 51.3237C59.0172 51.6868 59.2441 51.8683 59.5391 51.8683C59.834 51.8683 60.0382 51.7094 60.129 51.4372C60.2198 51.1649 60.2424 50.4388 60.2424 49.259V44.4715ZM73.6066 55.5667V37.1201H71.9503V48.8959C71.9503 51.0514 71.7914 52.5943 71.4511 53.5019C71.1334 54.4322 70.6343 54.9994 69.9309 55.2263C69.2502 55.4532 68.093 55.5667 66.5048 55.5667H65.756V51.7548C66.3459 51.7321 66.7543 51.6187 66.9812 51.4145C67.2081 51.1876 67.3216 50.4161 67.3216 49.1001V32.2191H78.2353V55.5667H73.6066ZM90.6011 48.8959C90.6011 51.0288 90.4422 52.5716 90.1246 53.5019C89.7842 54.4322 89.2851 54.9994 88.5817 55.2263C87.8783 55.4532 86.7438 55.5667 85.1556 55.5667H79.7555V32.2191H84.3841V40.0016H85.1556C86.6304 40.0016 87.7422 40.1378 88.4682 40.4101C89.217 40.6823 89.7389 41.2723 90.0792 42.1798C90.4422 43.0874 90.6011 44.5396 90.6011 46.5362V48.8959ZM85.9724 48.0337V47.1035C85.9724 45.9009 85.9043 45.1749 85.7455 44.9026C85.5867 44.653 85.1329 44.5169 84.3841 44.4715V50.6657C85.0194 50.6657 85.4278 50.5523 85.6547 50.3027C85.8589 50.0758 85.9724 49.3044 85.9724 48.0337ZM106.574 55.5667H102.581V39.4798L100.653 55.5667H98.0886L96.0919 39.4798V55.5667H92.0986V32.2191H97.8617L99.3592 45.1522L100.721 32.2191H106.574V55.5667ZM119.78 55.5667H115.718V42.9513L112.496 55.5667H108.231V32.2191H112.292V44.7211L115.491 32.2191H119.78V55.5667ZM126.178 32.2191L126.088 34.2839C126.519 33.4444 126.972 32.8317 127.472 32.4006C127.971 31.9922 128.515 31.788 129.105 31.788C129.831 31.788 130.467 32.083 130.988 32.6729C131.51 33.2628 131.851 33.9662 131.964 34.7377C132.1 35.5091 132.168 36.8251 132.168 38.6856V48.5102C132.168 50.643 132.078 52.1632 131.919 53.0481C131.76 53.9557 131.42 54.6591 130.898 55.2036C130.399 55.7482 129.786 55.9978 129.06 55.9978C128.47 55.9978 127.948 55.7936 127.449 55.3852C126.95 54.9767 126.519 54.3641 126.088 53.5473V58.8793H121.436V32.2191H126.178ZM127.517 39.0033C127.517 37.5739 127.472 36.689 127.403 36.394C127.335 36.0764 127.154 35.9402 126.836 35.9402C126.519 35.9402 126.314 36.099 126.224 36.4621C126.133 36.8024 126.088 37.6646 126.088 39.0033V48.6917C126.088 50.0985 126.156 50.9834 126.246 51.3237C126.337 51.6868 126.541 51.8683 126.836 51.8683C127.154 51.8683 127.335 51.6868 127.403 51.3691C127.472 51.0514 127.517 50.2573 127.517 49.0321V39.0033ZM137.863 41.2723H133.484V39.7067C133.484 37.8915 133.62 36.5075 133.893 35.5091C134.165 34.5335 134.732 33.6713 135.549 32.9225C136.366 32.1738 137.432 31.788 138.748 31.788C140.337 31.788 141.516 32.2191 142.311 33.0586C143.127 33.9208 143.604 34.9646 143.763 36.1898C143.921 37.4377 144.012 39.979 144.012 43.8362V55.5667H139.474V53.4792C139.179 54.3187 138.816 54.9541 138.363 55.3625C137.909 55.7936 137.387 55.9978 136.752 55.9978C135.935 55.9978 135.186 55.6574 134.505 54.9541C133.825 54.2507 133.484 52.7305 133.484 50.3708V48.4422C133.484 46.6951 133.666 45.5152 134.029 44.8799C134.392 44.2446 135.299 43.4958 136.729 42.6563C138.272 41.7487 139.089 41.1361 139.202 40.8185C139.293 40.5008 139.361 39.8428 139.361 38.8672C139.361 37.6419 139.293 36.8478 139.179 36.4848C139.043 36.1217 138.862 35.9402 138.567 35.9402C138.249 35.9402 138.068 36.099 137.977 36.394C137.909 36.7117 137.863 37.5285 137.863 38.8218V41.2723ZM139.361 44.4715C138.589 45.311 138.158 45.9917 138.045 46.5589C137.931 47.1262 137.863 47.9203 137.863 48.9867C137.863 50.2119 137.909 50.9834 138.022 51.3237C138.113 51.6868 138.34 51.8683 138.635 51.8683C138.93 51.8683 139.134 51.7094 139.225 51.4372C139.315 51.1649 139.361 50.4388 139.361 49.259V44.4715Z" fill="white"/>
<path d="M59.7887 66.9115H58.5634V71.336H56.8844V65.7997H59.7887V66.9115ZM60.2425 65.7997H63.0333V66.9115H61.9215V67.9552H62.9652V68.999H61.9215V70.2242H63.1467V71.336H60.2425V65.7997ZM67.4577 69.0443C67.4577 69.5889 67.435 69.9973 67.4123 70.2242C67.3897 70.4511 67.2989 70.6553 67.1174 70.8595C66.9586 71.041 66.7543 71.1998 66.4821 71.2906C66.2098 71.404 65.8921 71.4494 65.5291 71.4494C65.1661 71.4494 64.8711 71.404 64.5988 71.2906C64.3266 71.1998 64.0997 71.0637 63.9182 70.8595C63.7593 70.678 63.6686 70.4511 63.6232 70.2242C63.6005 69.9973 63.5778 69.6116 63.5778 69.0443V68.0914C63.5778 67.5468 63.6005 67.1384 63.6232 66.9115C63.6686 66.6846 63.7593 66.4804 63.9182 66.2762C64.077 66.0947 64.2812 65.9359 64.5762 65.8451C64.8484 65.7317 65.1661 65.6863 65.5291 65.6863C65.8695 65.6863 66.1644 65.7317 66.4594 65.8224C66.7317 65.9359 66.9586 66.072 67.1174 66.2762C67.2762 66.4577 67.3897 66.6619 67.4123 66.8888C67.435 67.1157 67.4577 67.5241 67.4577 68.0914V69.0443ZM65.7787 67.2292C65.7787 66.9569 65.756 66.7981 65.7333 66.73C65.6879 66.6619 65.6199 66.6165 65.5291 66.6165C65.4384 66.6165 65.3703 66.6619 65.3249 66.7073C65.2795 66.7754 65.2568 66.9342 65.2568 67.2292V69.7931C65.2568 70.1334 65.2795 70.3149 65.3022 70.4057C65.3476 70.4738 65.4157 70.5191 65.5064 70.5191C65.6199 70.5191 65.7106 70.4738 65.7333 70.383C65.756 70.2923 65.7787 70.088 65.7787 69.7704V67.2292ZM72.9032 72.2889H71.7234V71.336H69.0233V72.2889H67.8661V70.1788H68.2065C68.388 69.725 68.5468 69.1351 68.6603 68.3863C68.7737 67.6376 68.8191 66.8434 68.8191 65.9586V65.7997H72.5402V70.1561H72.9032V72.2889ZM70.8612 70.1561V66.8888H70.362V66.9342C70.362 67.9779 70.2258 69.067 69.9763 70.1561H70.8612ZM73.4024 65.7997H76.2159V66.9115H75.1041V67.9552H76.1478V68.999H75.1041V70.2242H76.3293V71.336H73.4024V65.7997ZM79.7781 68.2048C80.0277 68.2729 80.2092 68.3863 80.3227 68.5452C80.4361 68.704 80.5042 69.0897 80.5042 69.6796C80.5042 70.1107 80.4361 70.4511 80.3227 70.7007C80.2092 70.9503 80.005 71.1318 79.7328 71.2452C79.4378 71.3814 79.0748 71.4494 78.621 71.4494C78.0991 71.4494 77.7134 71.3587 77.4184 71.2225C77.1235 71.0637 76.942 70.8822 76.8512 70.678C76.7604 70.4738 76.7151 70.088 76.7151 69.5662V69.1351H78.326V70.0427C78.326 70.2696 78.326 70.4284 78.3714 70.4965C78.3941 70.5645 78.4622 70.5872 78.5983 70.5872C78.7117 70.5872 78.8025 70.5418 78.8252 70.4738C78.8706 70.383 78.8933 70.1561 78.8933 69.8158V69.4301C78.8933 69.2258 78.8706 69.067 78.8025 68.9763C78.7571 68.8855 78.6664 68.8174 78.5756 68.7721C78.4622 68.7494 78.2353 68.7267 77.9403 68.7267V67.9325C78.3033 67.9325 78.5529 67.9099 78.6437 67.8872C78.7344 67.8645 78.8025 67.7964 78.8252 67.7283C78.8706 67.6376 78.8933 67.5014 78.8933 67.3199V67.025C78.8933 66.8208 78.8706 66.7073 78.8252 66.6392C78.7798 66.5712 78.7117 66.5485 78.5983 66.5485C78.4848 66.5485 78.4168 66.5712 78.3714 66.6392C78.326 66.7073 78.326 66.8434 78.326 67.0477V67.5014H76.7151V67.0477C76.7151 66.5031 76.8512 66.1628 77.1235 65.9812C77.4184 65.777 77.8495 65.6863 78.4622 65.6863C79.2336 65.6863 79.7555 65.8224 80.0277 66.072C80.3 66.3443 80.4361 66.6846 80.4361 67.1611C80.4361 67.4561 80.3908 67.683 80.3 67.8191C80.2092 67.9552 80.0277 68.0914 79.7781 68.2048ZM84.8833 71.336H83.4765V68.8174L82.5916 71.336H81.1395V65.7997H82.5463V68.2956L83.4765 65.7997H84.8833V71.336ZM87.8329 69.2032C87.6968 69.3393 87.5153 69.4301 87.3111 69.4981C87.0842 69.5662 86.88 69.6116 86.6531 69.6116C86.2447 69.6116 85.9497 69.5208 85.7682 69.3393C85.5867 69.1351 85.4959 68.8401 85.4959 68.4317V65.7997H87.1749V68.2956C87.1749 68.4998 87.1976 68.6586 87.243 68.7267C87.2884 68.8174 87.3565 68.8628 87.4699 68.8628C87.7195 68.8628 87.8329 68.6586 87.8329 68.2956V65.7997H89.512V71.336H87.8329V69.2032ZM90.1926 65.7997H93.0061V66.9115H91.8717V67.9552H92.9154V68.999H91.8717V70.2242H93.1196V71.336H90.1926V65.7997ZM97.4987 68.2048H95.8196V67.2519C95.8196 66.9796 95.797 66.7981 95.7743 66.73C95.7289 66.6619 95.6608 66.6165 95.5474 66.6165C95.4112 66.6165 95.3205 66.6619 95.2751 66.7527C95.2297 66.8434 95.2297 67.025 95.2297 67.2972V69.8612C95.2297 70.1334 95.2297 70.3149 95.2751 70.383C95.3205 70.4738 95.3885 70.5191 95.5247 70.5191C95.6381 70.5191 95.7289 70.4738 95.7743 70.383C95.797 70.3149 95.8196 70.1107 95.8196 69.8158V69.1124H97.4987V69.3166C97.4987 69.9065 97.4533 70.3149 97.3625 70.5418C97.2718 70.7914 97.0676 70.9956 96.7499 71.1771C96.4096 71.3587 96.0239 71.4494 95.5474 71.4494C95.0482 71.4494 94.6398 71.3814 94.3221 71.2225C94.0045 71.0637 93.8003 70.8595 93.6868 70.5872C93.5961 70.3149 93.528 69.9065 93.528 69.362V67.751C93.528 67.3426 93.5507 67.0477 93.5961 66.8661C93.6188 66.6619 93.7095 66.4577 93.8684 66.2762C94.0272 66.0947 94.2541 65.9586 94.5263 65.8451C94.7986 65.7317 95.139 65.6863 95.502 65.6863C96.0012 65.6863 96.4096 65.777 96.7272 65.9359C97.0449 66.0947 97.2491 66.2989 97.3625 66.5485C97.4533 66.7981 97.4987 67.1611 97.4987 67.683V68.2048ZM98.1113 65.7997H99.7903V68.1367C100.108 68.1367 100.267 67.9779 100.289 67.683L100.312 66.5939C100.312 66.2081 100.403 65.9359 100.584 65.7997H102.127C101.991 65.9359 101.9 66.2081 101.923 66.6392V67.5695C101.923 68.1594 101.56 68.4771 100.789 68.5678C101.56 68.6359 101.923 68.9763 101.923 69.5435V70.4284C101.9 70.8595 101.991 71.1545 102.127 71.336H100.584C100.403 71.1771 100.312 70.9276 100.312 70.5191V69.4527C100.312 69.3166 100.267 69.2032 100.176 69.1124C100.063 69.0216 99.9491 68.999 99.7903 68.9763V71.336H98.1113V65.7997ZM106.234 71.336H104.827V68.8174L103.943 71.336H102.49V65.7997H103.897V68.2956L104.827 65.7997H106.234V71.336ZM106.892 65.7997H109.706V66.9115H108.594V67.9552H109.638V68.999H108.594V70.2242H109.819V71.336H106.892V65.7997ZM115.582 71.336H113.903V66.9115H113.404V71.336H111.725V65.7997H115.582V71.336ZM116.263 65.7997H117.965C118.418 65.7997 118.759 65.8224 119.008 65.8905C119.258 65.9586 119.439 66.0493 119.576 66.1628C119.689 66.2762 119.78 66.4123 119.825 66.5712C119.871 66.7527 119.893 67.0023 119.893 67.3426V67.8191C119.893 68.1821 119.848 68.4317 119.757 68.5905C119.666 68.7494 119.508 68.8855 119.281 68.9763C119.054 69.0443 118.759 69.0897 118.396 69.0897H117.942V71.336H116.263V65.7997ZM117.942 66.7527V68.1594C117.987 68.1594 118.033 68.1594 118.078 68.1594C118.214 68.1594 118.328 68.1141 118.396 68.046C118.441 68.0006 118.486 67.8645 118.486 67.6603V67.2065C118.486 67.0023 118.441 66.8888 118.373 66.8208C118.305 66.7754 118.169 66.7527 117.942 66.7527ZM124.114 71.336H122.707V68.8174L121.822 71.336H120.37V65.7997H121.776V68.2956L122.707 65.7997H124.114V71.336ZM128.697 70.0427C128.697 70.4511 128.629 70.746 128.493 70.9276C128.379 71.1091 128.198 71.2225 127.925 71.2679C127.676 71.3133 127.267 71.336 126.723 71.336H124.771V65.7997H128.061V66.7527H126.473V67.683H126.723C127.245 67.683 127.63 67.7283 127.903 67.7737C128.152 67.8191 128.356 67.9325 128.493 68.1141C128.629 68.2956 128.697 68.5678 128.697 68.9536V70.0427ZM127.018 69.8612V69.067C127.018 68.8401 126.972 68.704 126.927 68.6359C126.882 68.5905 126.723 68.5678 126.473 68.5678V70.383C126.677 70.383 126.814 70.3603 126.904 70.3149C126.972 70.2696 127.018 70.1107 127.018 69.8612ZM133.121 69.0443C133.121 69.5889 133.099 69.9973 133.076 70.2242C133.03 70.4511 132.94 70.6553 132.781 70.8595C132.622 71.041 132.395 71.1998 132.123 71.2906C131.851 71.404 131.533 71.4494 131.17 71.4494C130.83 71.4494 130.512 71.404 130.24 71.2906C129.967 71.1998 129.741 71.0637 129.582 70.8595C129.423 70.678 129.309 70.4511 129.287 70.2242C129.241 69.9973 129.241 69.6116 129.241 69.0443V68.0914C129.241 67.5468 129.241 67.1384 129.287 66.9115C129.309 66.6846 129.4 66.4804 129.559 66.2762C129.718 66.0947 129.945 65.9359 130.217 65.8451C130.489 65.7317 130.807 65.6863 131.17 65.6863C131.51 65.6863 131.828 65.7317 132.1 65.8224C132.372 65.9359 132.599 66.072 132.758 66.2762C132.94 66.4577 133.03 66.6619 133.076 66.8888C133.099 67.1157 133.121 67.5241 133.121 68.0914V69.0443ZM131.442 67.2292C131.442 66.9569 131.42 66.7981 131.374 66.73C131.351 66.6619 131.283 66.6165 131.193 66.6165C131.102 66.6165 131.034 66.6619 130.988 66.7073C130.943 66.7754 130.92 66.9342 130.92 67.2292V69.7931C130.92 70.1334 130.943 70.3149 130.966 70.4057C130.988 70.4738 131.057 70.5191 131.17 70.5191C131.283 70.5191 131.351 70.4738 131.397 70.383C131.42 70.2923 131.442 70.088 131.442 69.7704V67.2292ZM133.757 65.7997H135.436C135.889 65.7997 136.252 65.8224 136.502 65.8905C136.729 65.9586 136.91 66.0493 137.047 66.1628C137.16 66.2762 137.251 66.4123 137.296 66.5712C137.342 66.7527 137.364 67.0023 137.364 67.3426V67.8191C137.364 68.1821 137.319 68.4317 137.228 68.5905C137.16 68.7494 137.001 68.8855 136.774 68.9763C136.547 69.0443 136.252 69.0897 135.867 69.0897H135.436V71.336H133.757V65.7997ZM135.436 66.7527V68.1594C135.481 68.1594 135.526 68.1594 135.549 68.1594C135.708 68.1594 135.799 68.1141 135.867 68.046C135.935 68.0006 135.957 67.8645 135.957 67.6603V67.2065C135.957 67.0023 135.935 66.8888 135.844 66.8208C135.776 66.7754 135.64 66.7527 135.436 66.7527ZM141.743 70.0427C141.743 70.4511 141.698 70.746 141.562 70.9276C141.448 71.1091 141.244 71.2225 140.995 71.2679C140.745 71.3133 140.337 71.336 139.792 71.336H137.841V65.7997H139.52V67.683H139.792C140.314 67.683 140.7 67.7283 140.972 67.7737C141.221 67.8191 141.426 67.9325 141.562 68.1141C141.698 68.2956 141.743 68.5678 141.743 68.9536V70.0427ZM140.064 69.8612V69.067C140.064 68.8401 140.042 68.704 139.996 68.6359C139.928 68.5905 139.792 68.5678 139.52 68.5678V70.383C139.747 70.383 139.883 70.3603 139.951 70.3149C140.042 70.2696 140.064 70.1107 140.064 69.8612ZM144.012 71.336H142.333V65.7997H144.012V71.336ZM60.6055 79.8445H59.1987V77.3487L58.3365 79.8445H56.8844V74.331H58.2685V76.8268L59.2214 74.331H60.6055V79.8445ZM66.119 74.331V75.4201H65.1207V79.8445H63.4417V75.4201H62.4433V74.331H66.119ZM66.5048 74.331H69.2956V75.4201H68.1838V76.4865H69.2275V77.5302H68.1838V78.7554H69.409V79.8445H66.5048V74.331ZM73.2889 74.331L72.699 76.7588L73.5839 79.8445H72.041C71.8595 79.3 71.678 78.6193 71.5192 77.8252C71.4738 78.1882 71.4057 78.5512 71.3376 78.9597L71.1788 79.8445H69.5452L70.1578 76.7588L69.5452 74.331H71.1788C71.2242 74.4671 71.2696 74.7394 71.3603 75.0797C71.4284 75.352 71.4738 75.6016 71.5192 75.8285L71.8822 74.331H73.2889ZM77.668 74.331V79.8445H75.989V77.5302H75.5125V79.8445H73.8335V74.331H75.5125V76.305H75.989V74.331H77.668ZM82.1832 77.5756C82.1832 78.1201 82.1605 78.5059 82.1379 78.7554C82.1152 78.9823 82.0244 79.1865 81.8656 79.3681C81.6841 79.5723 81.4799 79.7084 81.2076 79.8219C80.9353 79.9126 80.6177 79.9807 80.2546 79.9807C79.8916 79.9807 79.5966 79.9126 79.3244 79.8219C79.0521 79.7311 78.8252 79.595 78.6664 79.3908C78.4848 79.2092 78.3941 78.9823 78.3487 78.7554C78.326 78.5286 78.3033 78.1428 78.3033 77.5756V76.6226C78.3033 76.0554 78.326 75.6697 78.3487 75.4428C78.3941 75.2159 78.4848 74.989 78.6437 74.8075C78.8025 74.626 79.0294 74.4671 79.3017 74.3764C79.5739 74.2629 79.8916 74.2175 80.2546 74.2175C80.595 74.2175 80.9126 74.2629 81.1849 74.3537C81.4572 74.4444 81.6841 74.6033 81.8429 74.7848C82.0017 74.989 82.1152 75.1932 82.1379 75.4201C82.1605 75.647 82.1832 76.0554 82.1832 76.6226V77.5756ZM80.5042 75.7604C80.5042 75.4882 80.4815 75.3293 80.4588 75.2613C80.4135 75.1932 80.3454 75.1478 80.2546 75.1478C80.1639 75.1478 80.0958 75.1705 80.0504 75.2386C80.005 75.2839 79.9824 75.4655 79.9824 75.7604V78.3243C79.9824 78.642 80.005 78.8462 80.0277 78.9143C80.0731 79.005 80.1412 79.0277 80.2546 79.0277C80.3454 79.0277 80.4361 78.9823 80.4588 78.9143C80.4815 78.8235 80.5042 78.6193 80.5042 78.279V75.7604ZM86.9254 79.8445H85.2236V75.4201H84.7472V78.5512C84.7472 78.9823 84.6791 79.2773 84.5656 79.4361C84.4295 79.6177 84.248 79.7311 83.9984 79.7765C83.7488 79.8219 83.3404 79.8445 82.7959 79.8445H82.5236V78.9143C82.7278 78.9143 82.8639 78.8916 82.9547 78.8462C83.0227 78.8008 83.0681 78.642 83.0681 78.3924V74.331H86.9254V79.8445ZM91.4179 77.5756C91.4179 78.1201 91.3952 78.5059 91.3725 78.7554C91.3271 78.9823 91.2364 79.1865 91.0775 79.3681C90.9187 79.5723 90.7145 79.7084 90.4195 79.8219C90.1473 79.9126 89.8296 79.9807 89.4666 79.9807C89.1262 79.9807 88.8313 79.9126 88.5363 79.8219C88.264 79.7311 88.0598 79.595 87.8783 79.3908C87.7195 79.2092 87.606 78.9823 87.5833 78.7554C87.5607 78.5286 87.538 78.1428 87.538 77.5756V76.6226C87.538 76.0554 87.5607 75.6697 87.5833 75.4428C87.606 75.2159 87.6968 74.989 87.8783 74.8075C88.0371 74.626 88.2413 74.4671 88.5136 74.3764C88.7859 74.2629 89.1035 74.2175 89.4666 74.2175C89.8296 74.2175 90.1246 74.2629 90.3969 74.3537C90.6691 74.4444 90.896 74.6033 91.0775 74.7848C91.2364 74.989 91.3271 75.1932 91.3725 75.4201C91.3952 75.647 91.4179 76.0554 91.4179 76.6226V77.5756ZM89.7389 75.7604C89.7389 75.4882 89.7162 75.3293 89.6935 75.2613C89.6481 75.1932 89.58 75.1478 89.4893 75.1478C89.3985 75.1478 89.3304 75.1705 89.2851 75.2386C89.2397 75.2839 89.217 75.4655 89.217 75.7604V78.3243C89.217 78.642 89.2397 78.8462 89.2624 78.9143C89.2851 79.005 89.3531 79.0277 89.4666 79.0277C89.58 79.0277 89.6481 78.9823 89.6935 78.9143C89.7162 78.8235 89.7389 78.6193 89.7389 78.279V75.7604ZM94.9574 75.4201H93.7322V79.8445H92.0532V74.331H94.9574V75.4201ZM99.155 79.8445H97.7483V77.3487L96.8634 79.8445H95.4112V74.331H96.818V76.8268L97.7483 74.331H99.155V79.8445ZM103.557 79.8445H102.173V77.3487L101.288 79.8445H99.8357V74.331H101.242V76.8268L102.173 74.331H103.557V79.8445Z" fill="white"/>
</svg>
