<svg width="145" height="82" viewBox="0 0 145 82" fill="none" xmlns="http://www.w3.org/2000/svg">
<path fill-rule="evenodd" clip-rule="evenodd" d="M61.2408 10.4145C19.7416 21.3282 -13.5893 44.653 31.2225 82C34.7621 75.3747 36.6453 73.3326 46.9691 71.7897C5.15224 44.8572 25.1644 24.5274 61.2408 10.4145Z" fill="#008DD2"/>
<path fill-rule="evenodd" clip-rule="evenodd" d="M72.7898 5.76315C44.0875 11.1406 0.727805 20.6475 0.0017395 57.5407C1.40849 57.5407 2.79255 57.5407 4.1993 57.5407C4.97075 21.6005 45.0405 13.1599 72.7898 5.76315Z" fill="#008DD2"/>
<path d="M86.5396 11.3901C89.685 11.3901 92.2347 8.84038 92.2347 5.69507C92.2347 2.54977 89.685 0 86.5396 0C83.3943 0 80.8446 2.54977 80.8446 5.69507C80.8446 8.84038 83.3943 11.3901 86.5396 11.3901Z" fill="#008DD2"/>
<path d="M52.7776 55.5667H47.922V32.7637H46.4926V55.5667H41.637V27.0686H52.7776V55.5667ZM58.7676 41.2723H54.3885V39.7067C54.3885 37.8915 54.5247 36.5075 54.797 35.5091C55.0692 34.5335 55.6365 33.6713 56.4533 32.9225C57.2701 32.1738 58.3365 31.7881 59.6525 31.7881C61.2408 31.7881 62.4206 32.2192 63.2148 33.0587C64.0316 33.9209 64.5081 34.9646 64.6669 36.1898C64.8257 37.4378 64.9165 39.979 64.9165 43.8362V55.5667H60.3786V53.4793C60.0836 54.3188 59.7206 54.9541 59.2668 55.3625C58.813 55.7936 58.2911 55.9978 57.6558 55.9978C56.839 55.9978 56.0903 55.6575 55.4096 54.9541C54.7289 54.2507 54.3885 52.7305 54.3885 50.3708V48.4422C54.3885 46.6951 54.5701 45.5152 54.9331 44.8799C55.2961 44.2446 56.2037 43.4959 57.6332 42.6563C59.1534 41.7488 59.9929 41.1362 60.0836 40.8185C60.1971 40.5008 60.2424 39.8428 60.2424 38.8672C60.2424 37.642 60.1971 36.8478 60.0836 36.4848C59.9475 36.1218 59.7433 35.9402 59.471 35.9402C59.1534 35.9402 58.9491 36.0991 58.8811 36.394C58.813 36.7117 58.7676 37.5285 58.7676 38.8218V41.2723ZM60.2424 44.4715C59.4937 45.311 59.0626 45.9917 58.9491 46.559C58.8357 47.1262 58.7676 47.9203 58.7676 48.9867C58.7676 50.212 58.813 50.9834 58.9265 51.3238C59.0172 51.6868 59.2441 51.8683 59.5391 51.8683C59.834 51.8683 60.0382 51.7095 60.129 51.4372C60.2198 51.1649 60.2424 50.4389 60.2424 49.259V44.4715ZM73.6066 55.5667V37.1201H71.9503V48.896C71.9503 51.0515 71.7914 52.5944 71.4511 53.5019C71.1334 54.4322 70.6343 54.9995 69.9309 55.2264C69.2502 55.4533 68.093 55.5667 66.5048 55.5667H65.756V51.7549C66.3459 51.7322 66.7543 51.6187 66.9812 51.4145C67.2081 51.1876 67.3216 50.4162 67.3216 49.1002V32.2192H78.2353V55.5667H73.6066ZM90.6011 48.896C90.6011 51.0288 90.4422 52.5717 90.1246 53.5019C89.7842 54.4322 89.2851 54.9995 88.5817 55.2264C87.8783 55.4533 86.7438 55.5667 85.1556 55.5667H79.7555V32.2192H84.3841V40.0017H85.1556C86.6304 40.0017 87.7422 40.1378 88.4682 40.4101C89.217 40.6824 89.7389 41.2723 90.0792 42.1799C90.4422 43.0875 90.6011 44.5396 90.6011 46.5363V48.896ZM85.9724 48.0338V47.1035C85.9724 45.901 85.9043 45.1749 85.7455 44.9026C85.5867 44.653 85.1329 44.5169 84.3841 44.4715V50.6658C85.0194 50.6658 85.4278 50.5523 85.6547 50.3027C85.8589 50.0758 85.9724 49.3044 85.9724 48.0338ZM106.574 55.5667H102.581V39.4798L100.653 55.5667H98.0886L96.0919 39.4798V55.5667H92.0986V32.2192H97.8617L99.3592 45.1522L100.721 32.2192H106.574V55.5667ZM119.78 55.5667H115.718V42.9513L112.496 55.5667H108.231V32.2192H112.292V44.7211L115.491 32.2192H119.78V55.5667ZM126.178 32.2192L126.088 34.2839C126.519 33.4444 126.972 32.8318 127.472 32.4007C127.971 31.9923 128.515 31.7881 129.105 31.7881C129.831 31.7881 130.467 32.083 130.988 32.673C131.51 33.2629 131.851 33.9663 131.964 34.7377C132.1 35.5091 132.168 36.8251 132.168 38.6857V48.5103C132.168 50.6431 132.078 52.1633 131.919 53.0482C131.76 53.9557 131.42 54.6591 130.898 55.2037C130.399 55.7482 129.786 55.9978 129.06 55.9978C128.47 55.9978 127.948 55.7936 127.449 55.3852C126.95 54.9768 126.519 54.3642 126.088 53.5473V58.8794H121.436V32.2192H126.178ZM127.517 39.0033C127.517 37.5739 127.472 36.689 127.403 36.394C127.335 36.0764 127.154 35.9402 126.836 35.9402C126.519 35.9402 126.314 36.0991 126.224 36.4621C126.133 36.8024 126.088 37.6646 126.088 39.0033V48.6918C126.088 50.0985 126.156 50.9834 126.246 51.3238C126.337 51.6868 126.541 51.8683 126.836 51.8683C127.154 51.8683 127.335 51.6868 127.403 51.3691C127.472 51.0515 127.517 50.2573 127.517 49.0321V39.0033ZM137.863 41.2723H133.484V39.7067C133.484 37.8915 133.62 36.5075 133.893 35.5091C134.165 34.5335 134.732 33.6713 135.549 32.9225C136.366 32.1738 137.432 31.7881 138.748 31.7881C140.337 31.7881 141.516 32.2192 142.311 33.0587C143.127 33.9209 143.604 34.9646 143.763 36.1898C143.921 37.4378 144.012 39.979 144.012 43.8362V55.5667H139.474V53.4793C139.179 54.3188 138.816 54.9541 138.363 55.3625C137.909 55.7936 137.387 55.9978 136.752 55.9978C135.935 55.9978 135.186 55.6575 134.505 54.9541C133.825 54.2507 133.484 52.7305 133.484 50.3708V48.4422C133.484 46.6951 133.666 45.5152 134.029 44.8799C134.392 44.2446 135.299 43.4959 136.729 42.6563C138.272 41.7488 139.089 41.1362 139.202 40.8185C139.293 40.5008 139.361 39.8428 139.361 38.8672C139.361 37.642 139.293 36.8478 139.179 36.4848C139.043 36.1218 138.862 35.9402 138.567 35.9402C138.249 35.9402 138.068 36.0991 137.977 36.394C137.909 36.7117 137.863 37.5285 137.863 38.8218V41.2723ZM139.361 44.4715C138.589 45.311 138.158 45.9917 138.045 46.559C137.931 47.1262 137.863 47.9203 137.863 48.9867C137.863 50.212 137.909 50.9834 138.022 51.3238C138.113 51.6868 138.34 51.8683 138.635 51.8683C138.93 51.8683 139.134 51.7095 139.225 51.4372C139.315 51.1649 139.361 50.4389 139.361 49.259V44.4715Z" fill="#008DD2"/>
<path d="M59.7887 66.9115H58.5634V71.3359H56.8844V65.7997H59.7887V66.9115ZM60.2425 65.7997H63.0333V66.9115H61.9215V67.9552H62.9652V68.9989H61.9215V70.2241H63.1467V71.3359H60.2425V65.7997ZM67.4577 69.0443C67.4577 69.5888 67.435 69.9972 67.4123 70.2241C67.3897 70.451 67.2989 70.6552 67.1174 70.8594C66.9586 71.0409 66.7543 71.1998 66.4821 71.2905C66.2098 71.404 65.8921 71.4494 65.5291 71.4494C65.1661 71.4494 64.8711 71.404 64.5988 71.2905C64.3266 71.1998 64.0997 71.0636 63.9182 70.8594C63.7593 70.6779 63.6686 70.451 63.6232 70.2241C63.6005 69.9972 63.5778 69.6115 63.5778 69.0443V68.0913C63.5778 67.5468 63.6005 67.1383 63.6232 66.9115C63.6686 66.6846 63.7593 66.4804 63.9182 66.2761C64.077 66.0946 64.2812 65.9358 64.5762 65.845C64.8484 65.7316 65.1661 65.6862 65.5291 65.6862C65.8695 65.6862 66.1644 65.7316 66.4594 65.8224C66.7317 65.9358 66.9586 66.0719 67.1174 66.2761C67.2762 66.4577 67.3897 66.6619 67.4123 66.8888C67.435 67.1157 67.4577 67.5241 67.4577 68.0913V69.0443ZM65.7787 67.2291C65.7787 66.9568 65.756 66.798 65.7333 66.7299C65.6879 66.6619 65.6199 66.6165 65.5291 66.6165C65.4384 66.6165 65.3703 66.6619 65.3249 66.7072C65.2795 66.7753 65.2568 66.9341 65.2568 67.2291V69.793C65.2568 70.1334 65.2795 70.3149 65.3022 70.4056C65.3476 70.4737 65.4157 70.5191 65.5064 70.5191C65.6199 70.5191 65.7106 70.4737 65.7333 70.383C65.756 70.2922 65.7787 70.088 65.7787 69.7703V67.2291ZM72.9032 72.2889H71.7234V71.3359H69.0233V72.2889H67.8661V70.1787H68.2065C68.388 69.725 68.5468 69.135 68.6603 68.3863C68.7737 67.6375 68.8191 66.8434 68.8191 65.9585V65.7997H72.5402V70.1561H72.9032V72.2889ZM70.8612 70.1561V66.8888H70.362V66.9341C70.362 67.9779 70.2258 69.067 69.9763 70.1561H70.8612ZM73.4024 65.7997H76.2159V66.9115H75.1041V67.9552H76.1478V68.9989H75.1041V70.2241H76.3293V71.3359H73.4024V65.7997ZM79.7781 68.2048C80.0277 68.2728 80.2092 68.3863 80.3227 68.5451C80.4361 68.7039 80.5042 69.0896 80.5042 69.6796C80.5042 70.1107 80.4361 70.451 80.3227 70.7006C80.2092 70.9502 80.005 71.1317 79.7328 71.2452C79.4378 71.3813 79.0748 71.4494 78.621 71.4494C78.0991 71.4494 77.7134 71.3586 77.4184 71.2225C77.1235 71.0636 76.942 70.8821 76.8512 70.6779C76.7604 70.4737 76.7151 70.088 76.7151 69.5661V69.135H78.326V70.0426C78.326 70.2695 78.326 70.4283 78.3714 70.4964C78.3941 70.5645 78.4622 70.5872 78.5983 70.5872C78.7117 70.5872 78.8025 70.5418 78.8252 70.4737C78.8706 70.383 78.8933 70.1561 78.8933 69.8157V69.43C78.8933 69.2258 78.8706 69.067 78.8025 68.9762C78.7571 68.8854 78.6664 68.8174 78.5756 68.772C78.4622 68.7493 78.2353 68.7266 77.9403 68.7266V67.9325C78.3033 67.9325 78.5529 67.9098 78.6437 67.8871C78.7344 67.8644 78.8025 67.7963 78.8252 67.7283C78.8706 67.6375 78.8933 67.5014 78.8933 67.3199V67.0249C78.8933 66.8207 78.8706 66.7072 78.8252 66.6392C78.7798 66.5711 78.7117 66.5484 78.5983 66.5484C78.4848 66.5484 78.4168 66.5711 78.3714 66.6392C78.326 66.7072 78.326 66.8434 78.326 67.0476V67.5014H76.7151V67.0476C76.7151 66.503 76.8512 66.1627 77.1235 65.9812C77.4184 65.777 77.8495 65.6862 78.4622 65.6862C79.2336 65.6862 79.7555 65.8224 80.0277 66.0719C80.3 66.3442 80.4361 66.6846 80.4361 67.161C80.4361 67.456 80.3908 67.6829 80.3 67.819C80.2092 67.9552 80.0277 68.0913 79.7781 68.2048ZM84.8833 71.3359H83.4765V68.8174L82.5916 71.3359H81.1395V65.7997H82.5463V68.2955L83.4765 65.7997H84.8833V71.3359ZM87.8329 69.2031C87.6968 69.3392 87.5153 69.43 87.3111 69.4981C87.0842 69.5661 86.88 69.6115 86.6531 69.6115C86.2447 69.6115 85.9497 69.5207 85.7682 69.3392C85.5867 69.135 85.4959 68.8401 85.4959 68.4317V65.7997H87.1749V68.2955C87.1749 68.4997 87.1976 68.6585 87.243 68.7266C87.2884 68.8174 87.3565 68.8628 87.4699 68.8628C87.7195 68.8628 87.8329 68.6585 87.8329 68.2955V65.7997H89.512V71.3359H87.8329V69.2031ZM90.1926 65.7997H93.0061V66.9115H91.8717V67.9552H92.9154V68.9989H91.8717V70.2241H93.1196V71.3359H90.1926V65.7997ZM97.4987 68.2048H95.8196V67.2518C95.8196 66.9795 95.797 66.798 95.7743 66.7299C95.7289 66.6619 95.6608 66.6165 95.5474 66.6165C95.4112 66.6165 95.3205 66.6619 95.2751 66.7526C95.2297 66.8434 95.2297 67.0249 95.2297 67.2972V69.8611C95.2297 70.1334 95.2297 70.3149 95.2751 70.383C95.3205 70.4737 95.3885 70.5191 95.5247 70.5191C95.6381 70.5191 95.7289 70.4737 95.7743 70.383C95.797 70.3149 95.8196 70.1107 95.8196 69.8157V69.1123H97.4987V69.3165C97.4987 69.9065 97.4533 70.3149 97.3625 70.5418C97.2718 70.7914 97.0676 70.9956 96.7499 71.1771C96.4096 71.3586 96.0239 71.4494 95.5474 71.4494C95.0482 71.4494 94.6398 71.3813 94.3221 71.2225C94.0045 71.0636 93.8003 70.8594 93.6868 70.5872C93.5961 70.3149 93.528 69.9065 93.528 69.3619V67.751C93.528 67.3426 93.5507 67.0476 93.5961 66.8661C93.6188 66.6619 93.7095 66.4577 93.8684 66.2761C94.0272 66.0946 94.2541 65.9585 94.5263 65.845C94.7986 65.7316 95.139 65.6862 95.502 65.6862C96.0012 65.6862 96.4096 65.777 96.7272 65.9358C97.0449 66.0946 97.2491 66.2988 97.3625 66.5484C97.4533 66.798 97.4987 67.161 97.4987 67.6829V68.2048ZM98.1113 65.7997H99.7903V68.1367C100.108 68.1367 100.267 67.9779 100.289 67.6829L100.312 66.5938C100.312 66.2081 100.403 65.9358 100.584 65.7997H102.127C101.991 65.9358 101.9 66.2081 101.923 66.6392V67.5694C101.923 68.1594 101.56 68.477 100.789 68.5678C101.56 68.6359 101.923 68.9762 101.923 69.5434V70.4283C101.9 70.8594 101.991 71.1544 102.127 71.3359H100.584C100.403 71.1771 100.312 70.9275 100.312 70.5191V69.4527C100.312 69.3165 100.267 69.2031 100.176 69.1123C100.063 69.0216 99.9491 68.9989 99.7903 68.9762V71.3359H98.1113V65.7997ZM106.234 71.3359H104.827V68.8174L103.943 71.3359H102.49V65.7997H103.897V68.2955L104.827 65.7997H106.234V71.3359ZM106.892 65.7997H109.706V66.9115H108.594V67.9552H109.638V68.9989H108.594V70.2241H109.819V71.3359H106.892V65.7997ZM115.582 71.3359H113.903V66.9115H113.404V71.3359H111.725V65.7997H115.582V71.3359ZM116.263 65.7997H117.965C118.418 65.7997 118.759 65.8224 119.008 65.8904C119.258 65.9585 119.439 66.0493 119.576 66.1627C119.689 66.2761 119.78 66.4123 119.825 66.5711C119.871 66.7526 119.893 67.0022 119.893 67.3426V67.819C119.893 68.1821 119.848 68.4317 119.757 68.5905C119.666 68.7493 119.508 68.8854 119.281 68.9762C119.054 69.0443 118.759 69.0896 118.396 69.0896H117.942V71.3359H116.263V65.7997ZM117.942 66.7526V68.1594C117.987 68.1594 118.033 68.1594 118.078 68.1594C118.214 68.1594 118.328 68.114 118.396 68.0459C118.441 68.0006 118.486 67.8644 118.486 67.6602V67.2064C118.486 67.0022 118.441 66.8888 118.373 66.8207C118.305 66.7753 118.169 66.7526 117.942 66.7526ZM124.114 71.3359H122.707V68.8174L121.822 71.3359H120.37V65.7997H121.776V68.2955L122.707 65.7997H124.114V71.3359ZM128.697 70.0426C128.697 70.451 128.629 70.746 128.493 70.9275C128.379 71.109 128.198 71.2225 127.925 71.2678C127.676 71.3132 127.267 71.3359 126.723 71.3359H124.771V65.7997H128.061V66.7526H126.473V67.6829H126.723C127.245 67.6829 127.63 67.7283 127.903 67.7737C128.152 67.819 128.356 67.9325 128.493 68.114C128.629 68.2955 128.697 68.5678 128.697 68.9535V70.0426ZM127.018 69.8611V69.067C127.018 68.8401 126.972 68.7039 126.927 68.6359C126.882 68.5905 126.723 68.5678 126.473 68.5678V70.383C126.677 70.383 126.814 70.3603 126.904 70.3149C126.972 70.2695 127.018 70.1107 127.018 69.8611ZM133.121 69.0443C133.121 69.5888 133.099 69.9972 133.076 70.2241C133.03 70.451 132.94 70.6552 132.781 70.8594C132.622 71.0409 132.395 71.1998 132.123 71.2905C131.851 71.404 131.533 71.4494 131.17 71.4494C130.83 71.4494 130.512 71.404 130.24 71.2905C129.967 71.1998 129.741 71.0636 129.582 70.8594C129.423 70.6779 129.309 70.451 129.287 70.2241C129.241 69.9972 129.241 69.6115 129.241 69.0443V68.0913C129.241 67.5468 129.241 67.1383 129.287 66.9115C129.309 66.6846 129.4 66.4804 129.559 66.2761C129.718 66.0946 129.945 65.9358 130.217 65.845C130.489 65.7316 130.807 65.6862 131.17 65.6862C131.51 65.6862 131.828 65.7316 132.1 65.8224C132.372 65.9358 132.599 66.0719 132.758 66.2761C132.94 66.4577 133.03 66.6619 133.076 66.8888C133.099 67.1157 133.121 67.5241 133.121 68.0913V69.0443ZM131.442 67.2291C131.442 66.9568 131.42 66.798 131.374 66.7299C131.351 66.6619 131.283 66.6165 131.193 66.6165C131.102 66.6165 131.034 66.6619 130.988 66.7072C130.943 66.7753 130.92 66.9341 130.92 67.2291V69.793C130.92 70.1334 130.943 70.3149 130.966 70.4056C130.988 70.4737 131.057 70.5191 131.17 70.5191C131.283 70.5191 131.351 70.4737 131.397 70.383C131.42 70.2922 131.442 70.088 131.442 69.7703V67.2291ZM133.757 65.7997H135.436C135.889 65.7997 136.252 65.8224 136.502 65.8904C136.729 65.9585 136.91 66.0493 137.047 66.1627C137.16 66.2761 137.251 66.4123 137.296 66.5711C137.342 66.7526 137.364 67.0022 137.364 67.3426V67.819C137.364 68.1821 137.319 68.4317 137.228 68.5905C137.16 68.7493 137.001 68.8854 136.774 68.9762C136.547 69.0443 136.252 69.0896 135.867 69.0896H135.436V71.3359H133.757V65.7997ZM135.436 66.7526V68.1594C135.481 68.1594 135.526 68.1594 135.549 68.1594C135.708 68.1594 135.799 68.114 135.867 68.0459C135.935 68.0006 135.957 67.8644 135.957 67.6602V67.2064C135.957 67.0022 135.935 66.8888 135.844 66.8207C135.776 66.7753 135.64 66.7526 135.436 66.7526ZM141.743 70.0426C141.743 70.451 141.698 70.746 141.562 70.9275C141.448 71.109 141.244 71.2225 140.995 71.2678C140.745 71.3132 140.337 71.3359 139.792 71.3359H137.841V65.7997H139.52V67.6829H139.792C140.314 67.6829 140.7 67.7283 140.972 67.7737C141.221 67.819 141.426 67.9325 141.562 68.114C141.698 68.2955 141.743 68.5678 141.743 68.9535V70.0426ZM140.064 69.8611V69.067C140.064 68.8401 140.042 68.7039 139.996 68.6359C139.928 68.5905 139.792 68.5678 139.52 68.5678V70.383C139.747 70.383 139.883 70.3603 139.951 70.3149C140.042 70.2695 140.064 70.1107 140.064 69.8611ZM144.012 71.3359H142.333V65.7997H144.012V71.3359ZM60.6055 79.8445H59.1987V77.3486L58.3365 79.8445H56.8844V74.3309H58.2685V76.8268L59.2214 74.3309H60.6055V79.8445ZM66.119 74.3309V75.42H65.1207V79.8445H63.4417V75.42H62.4433V74.3309H66.119ZM66.5048 74.3309H69.2956V75.42H68.1838V76.4864H69.2275V77.5302H68.1838V78.7554H69.409V79.8445H66.5048V74.3309ZM73.2889 74.3309L72.699 76.7587L73.5839 79.8445H72.041C71.8595 79.2999 71.678 78.6192 71.5192 77.8251C71.4738 78.1881 71.4057 78.5512 71.3376 78.9596L71.1788 79.8445H69.5452L70.1578 76.7587L69.5452 74.3309H71.1788C71.2242 74.4671 71.2696 74.7393 71.3603 75.0797C71.4284 75.352 71.4738 75.6015 71.5192 75.8284L71.8822 74.3309H73.2889ZM77.668 74.3309V79.8445H75.989V77.5302H75.5125V79.8445H73.8335V74.3309H75.5125V76.3049H75.989V74.3309H77.668ZM82.1832 77.5755C82.1832 78.1201 82.1605 78.5058 82.1379 78.7554C82.1152 78.9823 82.0244 79.1865 81.8656 79.368C81.6841 79.5722 81.4799 79.7083 81.2076 79.8218C80.9353 79.9126 80.6177 79.9806 80.2546 79.9806C79.8916 79.9806 79.5966 79.9126 79.3244 79.8218C79.0521 79.731 78.8252 79.5949 78.6664 79.3907C78.4848 79.2092 78.3941 78.9823 78.3487 78.7554C78.326 78.5285 78.3033 78.1428 78.3033 77.5755V76.6226C78.3033 76.0553 78.326 75.6696 78.3487 75.4427C78.3941 75.2158 78.4848 74.9889 78.6437 74.8074C78.8025 74.6259 79.0294 74.4671 79.3017 74.3763C79.5739 74.2629 79.8916 74.2175 80.2546 74.2175C80.595 74.2175 80.9126 74.2629 81.1849 74.3536C81.4572 74.4444 81.6841 74.6032 81.8429 74.7847C82.0017 74.9889 82.1152 75.1931 82.1379 75.42C82.1605 75.6469 82.1832 76.0553 82.1832 76.6226V77.5755ZM80.5042 75.7604C80.5042 75.4881 80.4815 75.3293 80.4588 75.2612C80.4135 75.1931 80.3454 75.1478 80.2546 75.1478C80.1639 75.1478 80.0958 75.1704 80.0504 75.2385C80.005 75.2839 79.9824 75.4654 79.9824 75.7604V78.3243C79.9824 78.6419 80.005 78.8461 80.0277 78.9142C80.0731 79.005 80.1412 79.0277 80.2546 79.0277C80.3454 79.0277 80.4361 78.9823 80.4588 78.9142C80.4815 78.8235 80.5042 78.6192 80.5042 78.2789V75.7604ZM86.9254 79.8445H85.2236V75.42H84.7472V78.5512C84.7472 78.9823 84.6791 79.2772 84.5656 79.4361C84.4295 79.6176 84.248 79.731 83.9984 79.7764C83.7488 79.8218 83.3404 79.8445 82.7959 79.8445H82.5236V78.9142C82.7278 78.9142 82.8639 78.8915 82.9547 78.8461C83.0227 78.8008 83.0681 78.6419 83.0681 78.3924V74.3309H86.9254V79.8445ZM91.4179 77.5755C91.4179 78.1201 91.3952 78.5058 91.3725 78.7554C91.3271 78.9823 91.2364 79.1865 91.0775 79.368C90.9187 79.5722 90.7145 79.7083 90.4195 79.8218C90.1473 79.9126 89.8296 79.9806 89.4666 79.9806C89.1262 79.9806 88.8313 79.9126 88.5363 79.8218C88.264 79.731 88.0598 79.5949 87.8783 79.3907C87.7195 79.2092 87.606 78.9823 87.5833 78.7554C87.5607 78.5285 87.538 78.1428 87.538 77.5755V76.6226C87.538 76.0553 87.5607 75.6696 87.5833 75.4427C87.606 75.2158 87.6968 74.9889 87.8783 74.8074C88.0371 74.6259 88.2413 74.4671 88.5136 74.3763C88.7859 74.2629 89.1035 74.2175 89.4666 74.2175C89.8296 74.2175 90.1246 74.2629 90.3969 74.3536C90.6691 74.4444 90.896 74.6032 91.0775 74.7847C91.2364 74.9889 91.3271 75.1931 91.3725 75.42C91.3952 75.6469 91.4179 76.0553 91.4179 76.6226V77.5755ZM89.7389 75.7604C89.7389 75.4881 89.7162 75.3293 89.6935 75.2612C89.6481 75.1931 89.58 75.1478 89.4893 75.1478C89.3985 75.1478 89.3304 75.1704 89.2851 75.2385C89.2397 75.2839 89.217 75.4654 89.217 75.7604V78.3243C89.217 78.6419 89.2397 78.8461 89.2624 78.9142C89.2851 79.005 89.3531 79.0277 89.4666 79.0277C89.58 79.0277 89.6481 78.9823 89.6935 78.9142C89.7162 78.8235 89.7389 78.6192 89.7389 78.2789V75.7604ZM94.9574 75.42H93.7322V79.8445H92.0532V74.3309H94.9574V75.42ZM99.155 79.8445H97.7483V77.3486L96.8634 79.8445H95.4112V74.3309H96.818V76.8268L97.7483 74.3309H99.155V79.8445ZM103.557 79.8445H102.173V77.3486L101.288 79.8445H99.8357V74.3309H101.242V76.8268L102.173 74.3309H103.557V79.8445Z" fill="#008DD2"/>
</svg>
