<svg width="20" height="16" viewBox="0 0 20 16" fill="none" xmlns="http://www.w3.org/2000/svg">
<path d="M18.2141 15.7143C18.6636 15.7143 19.0532 15.5659 19.3843 15.2728L13.718 9.60626C13.5821 9.70361 13.4503 9.79828 13.3258 9.88829C12.9018 10.2007 12.5576 10.4445 12.2933 10.6192C12.0291 10.7943 11.6775 10.9728 11.2387 11.155C10.7995 11.3374 10.3904 11.4283 10.0109 11.4283H9.99979H9.98868C9.60912 11.4283 9.2 11.3374 8.76089 11.155C8.32177 10.9728 7.97021 10.7943 7.70623 10.6192C7.44199 10.4445 7.09802 10.2007 6.67376 9.88829C6.55553 9.80162 6.42441 9.70652 6.28265 9.60474L0.615234 15.2728C0.946356 15.5659 1.33616 15.7143 1.78569 15.7143H18.2141Z" fill="#008DD2"/>
<path d="M1.12735 6.03803C0.703348 5.75535 0.327345 5.4316 0 5.06693V13.6881L4.99428 8.69383C3.99514 7.99629 2.7078 7.11204 1.12735 6.03803Z" fill="#008DD2"/>
<path d="M18.884 6.03803C17.3639 7.06695 16.0718 7.95272 15.0078 8.69583L20.0001 13.6883V5.06693C19.68 5.42426 19.308 5.7478 18.884 6.03803Z" fill="#008DD2"/>
<path d="M18.2139 0H1.7856C1.21247 0 0.771831 0.193538 0.463149 0.580216C0.154214 0.967076 0 1.45089 0 2.0311C0 2.49977 0.20465 3.00758 0.613768 3.55468C1.02289 4.10157 1.45822 4.53113 1.91955 4.84359C2.17246 5.02227 2.93514 5.55249 4.2076 6.43405C4.89449 6.91006 5.49185 7.32495 6.00518 7.68298C6.44273 7.98784 6.82008 8.25186 7.13163 8.47096C7.16739 8.49605 7.22364 8.53629 7.29829 8.58967C7.37872 8.64744 7.4805 8.72075 7.60607 8.81142C7.84786 8.98629 8.04874 9.12765 8.20872 9.23564C8.36849 9.34367 8.56207 9.46433 8.78916 9.59832C9.01607 9.73212 9.23009 9.83274 9.43096 9.89966C9.63187 9.96655 9.81785 10.0001 9.98895 10.0001H10.0001H10.0112C10.1822 10.0001 10.3683 9.96655 10.5692 9.89966C10.77 9.83274 10.9839 9.73234 11.211 9.59832C11.4378 9.46433 11.6312 9.34341 11.7914 9.23564C11.9514 9.12765 12.1523 8.98633 12.3941 8.81142C12.5194 8.72075 12.6212 8.6474 12.7017 8.58985C12.7763 8.53625 12.8326 8.49627 12.8685 8.47096C13.1112 8.30208 13.4895 8.03915 13.998 7.68606C14.9232 7.04317 16.2859 6.09694 18.0918 4.84359C18.6349 4.46424 19.0886 4.00647 19.4533 3.47091C19.8173 2.93536 19.9998 2.37359 19.9998 1.78578C19.9998 1.29468 19.8229 0.874446 19.4697 0.524442C19.1162 0.174875 18.6976 0 18.2139 0Z" fill="#008DD2"/>
</svg>
