<svg width="17" height="16" viewBox="0 0 17 16" fill="none" xmlns="http://www.w3.org/2000/svg">
<path d="M15.6742 14.1131L12.2964 10.7353C13.2887 9.35104 13.724 7.64415 13.5157 5.95375C13.3074 4.26336 12.4708 2.71318 11.1722 1.61119C9.87356 0.509209 8.20792 -0.0639137 6.50617 0.0056681C4.80441 0.0752499 3.19111 0.782457 1.98678 1.98678C0.782457 3.19111 0.0752499 4.80441 0.0056681 6.50617C-0.0639137 8.20792 0.509209 9.87356 1.61119 11.1722C2.71318 12.4708 4.26336 13.3074 5.95375 13.5157C7.64415 13.7239 9.35104 13.2887 10.7353 12.2964L14.1131 15.6742C14.2156 15.7772 14.3374 15.859 14.4715 15.9149C14.6056 15.9707 14.7494 15.9997 14.8947 16C15.04 16.0003 15.1839 15.972 15.3183 15.9167C15.4526 15.8614 15.5747 15.7802 15.6777 15.6777C15.7807 15.5752 15.8624 15.4534 15.9183 15.3193C15.9742 15.1852 16.0031 15.0414 16.0035 14.8961C16.0038 14.7508 15.9755 14.6069 15.9202 14.4726C15.8649 14.3382 15.7837 14.2161 15.6812 14.1131H15.6742ZM3.55828 10.0169C2.81192 9.26926 2.34788 8.28594 2.24527 7.23452C2.14266 6.18309 2.40782 5.12861 2.99556 4.25078C3.58331 3.37294 4.45727 2.72608 5.46851 2.42041C6.47974 2.11474 7.56568 2.16918 8.54127 2.57446C9.51686 2.97974 10.3217 3.71078 10.8187 4.643C11.3157 5.57521 11.4741 6.65092 11.2668 7.68682C11.0596 8.72271 10.4995 9.65467 9.68214 10.3239C8.86474 10.9932 7.84056 11.3582 6.78413 11.357C6.18457 11.3578 5.5908 11.2398 5.03712 11.0097C4.48343 10.7797 3.98081 10.4423 3.55828 10.0169Z" fill="#A6B9C2"/>
</svg>
