<svg width="13" height="20" viewBox="0 0 13 20" fill="none" xmlns="http://www.w3.org/2000/svg">
<path d="M12.6268 17.8862C12.6821 18.0173 12.7103 18.1505 12.7103 18.2855C12.7103 18.4726 12.6608 18.6465 12.5613 18.8088C12.4623 18.9705 12.323 19.0944 12.1444 19.1799L11.3047 19.5734C10.9771 19.7226 10.649 19.8309 10.3204 19.8985C9.99185 19.966 9.65987 20 9.32401 20C8.78382 20 8.25042 19.9101 7.72333 19.7304C7.19625 19.5506 6.69197 19.2931 6.21051 18.9584C5.72904 18.6237 5.27718 18.2185 4.85542 17.7438C4.43365 17.2687 4.05556 16.7391 3.72213 16.1547C3.50955 15.8306 3.28629 15.4609 3.05187 15.0455C2.85336 14.6919 2.6267 14.2682 2.37141 13.7741C2.11612 13.2805 1.85888 12.732 1.59873 12.1301C1.33276 11.5277 1.12164 11.0015 0.965841 10.5517C0.810045 10.1013 0.689193 9.72721 0.604258 9.4294C0.504761 9.08155 0.436328 8.78325 0.398956 8.53499C0.262088 8.07394 0.161136 7.61532 0.0965843 7.15913C0.0320331 6.70294 0 6.25112 0 5.80416C0 5.21971 0.0587273 4.65761 0.175696 4.11689C0.292665 3.57617 0.472729 3.07334 0.714917 2.6084C0.957106 2.14346 1.26433 1.7276 1.63659 1.3608C2.00885 0.994 2.44906 0.695703 2.95722 0.464936L3.78522 0.0835621C3.91578 0.0276921 4.04683 0 4.17787 0C4.3623 0 4.53412 0.0510117 4.69331 0.153521C4.85202 0.25603 4.97141 0.397406 5.05053 0.578133L6.64392 4.19997C6.69974 4.33114 6.7274 4.46231 6.7274 4.59348C6.7274 4.78636 6.6779 4.96466 6.5784 5.12838C6.4789 5.2921 6.33912 5.41502 6.15857 5.49664L4.52053 6.25064C4.30406 6.35023 4.13856 6.49598 4.02305 6.68885C3.90802 6.88173 3.85026 7.08917 3.85026 7.31168C3.85026 7.48075 3.88181 7.63961 3.94539 7.78876L6.6347 13.9359C6.74002 14.1725 6.88514 14.3464 7.07103 14.4577C7.25643 14.569 7.45882 14.6248 7.67723 14.6248C7.82623 14.6248 7.97814 14.5908 8.13297 14.5233L9.77102 13.7693C9.90012 13.7139 10.0302 13.6857 10.1612 13.6857C10.3418 13.6857 10.5126 13.7367 10.6733 13.8392C10.8339 13.9417 10.9553 14.0822 11.0368 14.2609L12.6268 17.8862Z" fill="#008DD2"/>
</svg>
